<svg width="84" height="84" viewBox="0 0 84 84" fill="none" xmlns="http://www.w3.org/2000/svg">
<circle cx="41.8776" cy="41.8776" r="41.8776" fill="#0E0B1E"/>
<path d="M25.8161 36.8182V63.6156H19.6585V36.8182H25.8161Z" fill="white"/>
<path d="M64.0972 36.8182V63.6156H57.9397V36.8182H64.0972Z" fill="white"/>
<path d="M41.8774 14.5989C47.7701 14.5989 53.4219 16.9397 57.5888 21.1064C61.7556 25.2732 64.0971 30.9255 64.0972 36.8182H57.9397C57.9396 32.5586 56.2472 28.4732 53.2352 25.4612C50.223 22.449 46.1373 20.7564 41.8774 20.7564C37.6177 20.7566 33.5329 22.4491 30.5208 25.4612C27.5088 28.4733 25.8162 32.5585 25.8161 36.8182H19.6585C19.6586 30.9255 21.9992 25.2732 26.166 21.1064C30.3329 16.9396 35.9846 14.599 41.8774 14.5989Z" fill="white"/>
<path d="M36.1357 12.8925H47.62L45.706 20.5487H38.0498L36.1357 12.8925Z" fill="#C18F3A"/>
<path d="M66.7606 62.3835V64.8466H16.9951V62.3835H66.7606Z" fill="white"/>
</svg>
