<svg width="224" height="54" viewBox="0 0 224 54" fill="none" xmlns="http://www.w3.org/2000/svg">
<path fill-rule="evenodd" clip-rule="evenodd" d="M148.145 19.4605C151.194 19.5917 154.121 20.8976 156.278 23.1363L156.773 23.6491L160.791 21.1238L160.792 21.1246L162.345 20.159V48.168H155.99V44.8962L154.592 45.9294C152.728 47.3072 150.458 48.0785 148.15 48.1235C140.484 47.7772 134.469 41.4662 134.469 33.7924C134.469 26.1202 140.481 19.8093 148.145 19.4605ZM151.666 26.2712C148.606 24.9959 145.075 25.7934 142.778 28.1887C140.467 30.5979 139.88 34.1376 141.253 37.1772L141.255 37.1823C142.629 40.1769 145.723 42.095 149.071 41.8983C153.264 41.7867 156.658 38.3697 156.778 34.181L156.778 33.7727C156.771 30.4858 154.757 27.4976 151.666 26.2712Z" fill="white"/>
<path d="M190.841 48.168H184.486V24.1105L189.288 21.1246L189.293 21.1212L190.841 20.1444V48.168Z" fill="white"/>
<path d="M125.524 19.4159H132.099V24.9383H125.524V35.3667L125.528 35.4078C125.678 37.0082 126.373 38.5263 127.384 39.7779L127.389 39.7839L127.395 39.7907C128.455 41.0526 129.918 41.8578 131.525 42.1089L131.538 42.1115L131.552 42.1132C131.723 42.1346 131.905 42.1586 132.099 42.1774V48.1552C131.889 48.153 131.68 48.1452 131.47 48.1278L131.459 48.1269L131.449 48.126L131.056 48.0969C129.094 47.9235 127.181 47.3184 125.488 46.3181L125.48 46.3129C123.352 45.0851 121.666 43.2805 120.51 41.1347L120.501 41.1167L120.49 41.0988C119.643 39.6869 119.15 38.0991 118.943 36.4033C118.896 35.9869 118.868 34.51 118.857 32.4364C118.847 30.3886 118.854 27.8321 118.867 25.3321C118.881 22.8327 118.902 20.3914 118.919 18.5753C118.927 17.6676 118.935 16.9162 118.94 16.3915C118.942 16.2648 118.943 16.1509 118.944 16.0517L125.524 12V19.4159Z" fill="white"/>
<path d="M173.72 19.4159H180.294V24.9383H173.72V35.3667L173.723 35.4078C173.873 37.0082 174.569 38.5263 175.58 39.7779L175.585 39.7839L175.59 39.7907C176.65 41.0526 178.114 41.8578 179.72 42.1089L179.733 42.1115L179.747 42.1132C179.918 42.1346 180.1 42.1586 180.294 42.1774V48.1552C180.085 48.153 179.875 48.1452 179.666 48.1278L179.655 48.1269L179.644 48.126L179.251 48.0969C177.289 47.9235 175.377 47.3184 173.684 46.3181L173.675 46.3129C171.547 45.0851 169.861 43.2805 168.706 41.1347L168.696 41.1167L168.685 41.0988C167.838 39.6869 167.345 38.0991 167.138 36.4033C167.091 35.9869 167.063 34.51 167.053 32.4364C167.042 30.3886 167.049 27.8321 167.063 25.3321C167.077 22.8327 167.097 20.3914 167.114 18.5753C167.123 17.6676 167.13 16.9162 167.136 16.3915C167.137 16.2648 167.138 16.1509 167.139 16.0517L173.72 12V19.4159Z" fill="white"/>
<path d="M104.357 18.101C106.234 18.1437 108.1 18.3563 109.872 18.7782L109.888 18.7825L109.904 18.785C111.421 19.0885 112.84 19.6757 114.163 20.4886L111.945 25.8645C110.83 25.1592 109.61 24.6415 108.322 24.3091L108.307 24.3048L108.294 24.3023L107.828 24.2038C106.739 23.9868 105.581 23.8446 104.446 23.8426C103.172 23.7575 101.882 23.9674 100.703 24.5257L100.467 24.643C99.5313 25.117 99.053 26.0788 98.9892 26.9697L98.9815 27.1298C98.9725 27.9199 99.3823 28.6947 100.113 29.109C100.835 29.5422 101.669 29.8899 102.57 30.0463C103.524 30.2725 104.6 30.4515 105.734 30.6259L105.739 30.6267C106.881 30.7959 108.021 31.05 109.116 31.3869L109.154 31.3972C110.247 31.6805 111.255 32.1244 112.183 32.7292L112.189 32.7343L112.196 32.7386C113.11 33.3099 113.838 34.1108 114.338 35.073L114.354 35.0688C115.634 37.8871 115.427 41.1181 113.777 43.7285C112.743 45.1521 111.308 46.2329 109.654 46.919C107.541 47.7891 105.295 48.1662 102.991 48.1243H102.975C100.774 48.1243 98.5742 47.8282 96.4613 47.2366L96.4544 47.234L96.4476 47.2323L96.1232 47.1433C94.6213 46.7118 93.1851 46.033 91.8994 45.1607L94.1388 39.6991C96.864 41.4178 100.021 42.3381 103.214 42.4256C104.575 42.5165 105.937 42.2714 107.2 41.6886L107.247 41.6663L107.291 41.6389C108.121 41.1282 108.629 40.2311 108.629 39.2266C108.629 38.4636 108.224 37.6684 107.52 37.2774C106.709 36.822 105.863 36.5776 105.055 36.435C104.074 36.2566 103.048 36.0855 101.913 35.8675L101.895 35.864L101.876 35.8615C100.737 35.6927 99.6311 35.438 98.461 35.1347C97.3682 34.8513 96.3595 34.4073 95.4323 33.8027C94.5263 33.1966 93.7925 32.357 93.24 31.3809C91.9742 28.5422 92.1806 25.2375 93.8469 22.6124C94.8427 21.1435 96.2361 20.029 97.8755 19.3492L97.8858 19.3449C99.9128 18.4762 102.154 18.06 104.357 18.101Z" fill="white"/>
<path fill-rule="evenodd" clip-rule="evenodd" d="M209.854 19.2396L209.866 19.2404H209.878C217.585 19.4053 223.693 25.8373 223.528 33.5544V33.5732C223.528 39.4419 219.974 44.725 214.528 46.8702L214.523 46.8728C209.068 49.0632 202.875 47.7399 198.829 43.488C194.779 39.2306 193.707 32.9514 196.143 27.6263L196.145 27.6211C198.539 22.2965 203.99 18.9505 209.854 19.2396ZM212.587 26.0084C209.491 24.7799 205.958 25.5676 203.654 27.9696L203.648 27.9764C201.387 30.3841 200.801 33.9195 202.173 36.9581L202.175 36.9632C203.552 39.9621 206.601 41.8279 209.935 41.6809L209.935 41.6792C214.303 41.5713 217.786 37.945 217.699 33.5732C217.699 30.238 215.686 27.2383 212.587 26.0084Z" fill="white"/>
<path d="M6 53V25" stroke="white" stroke-width="5"/>
<path d="M46 53V25" stroke="white" stroke-width="5"/>
<path d="M6 25C6 19.6957 8.10714 14.6086 11.8579 10.8578C15.6086 7.10712 20.6957 5 26 5C31.3043 5 36.3914 7.10712 40.1421 10.8578C43.8929 14.6086 46 19.6957 46 25" stroke="white" stroke-width="5"/>
<path d="M20 0H32L30 8H22L20 0Z" fill="#C18F3A"/>
<path d="M0 53H52" stroke="white" stroke-width="2"/>
</svg>
