<svg width="87" height="115" viewBox="0 0 87 115" fill="none" xmlns="http://www.w3.org/2000/svg">
<path fill-rule="evenodd" clip-rule="evenodd" d="M36.8431 96.0272C38.8402 96.1132 40.7576 96.9686 42.1708 98.4351L42.4949 98.771L45.1264 97.1168L45.127 97.1173L46.1447 96.4848V114.832H41.9818V112.689L41.0661 113.365C39.8451 114.268 38.3584 114.773 36.8465 114.803C31.8246 114.576 27.8848 110.442 27.8847 105.415C27.8847 100.39 31.8228 96.2558 36.8431 96.0272ZM39.1495 100.489C37.1448 99.6532 34.8322 100.176 33.3273 101.745C31.8136 103.323 31.4294 105.641 32.3286 107.632L32.3297 107.636C33.2301 109.597 35.2565 110.854 37.4498 110.725C40.1962 110.652 42.4196 108.414 42.4977 105.67L42.4982 105.402C42.4931 103.249 41.1739 101.292 39.1495 100.489Z" fill="black"/>
<path d="M64.8108 114.832H60.6478V99.0732L63.7936 97.1173L63.7964 97.1151L64.8108 96.4753V114.832Z" fill="black"/>
<path d="M22.0255 95.9981H26.332V99.6154H22.0255V106.446L22.0277 106.473C22.126 107.522 22.5818 108.516 23.244 109.336L23.2473 109.34L23.2507 109.344C23.945 110.171 24.9039 110.698 25.9563 110.863L25.9647 110.865L25.9737 110.866C26.0859 110.88 26.2051 110.895 26.332 110.908V114.823C26.1949 114.822 26.0575 114.817 25.9204 114.805L25.9131 114.805L25.9064 114.804L25.649 114.785C24.3639 114.672 23.1109 114.275 22.0019 113.62L21.9963 113.617C20.6023 112.812 19.4981 111.63 18.7412 110.225L18.735 110.213L18.7277 110.201C18.1729 109.276 17.8499 108.236 17.7145 107.125C17.6835 106.853 17.6652 105.885 17.6584 104.527C17.6517 103.186 17.6561 101.511 17.6651 99.8734C17.6741 98.2362 17.6876 96.6371 17.6988 95.4474C17.7044 94.8529 17.7091 94.3606 17.7128 94.017C17.7137 93.934 17.7143 93.8594 17.715 93.7944L22.0255 91.1404V95.9981Z" fill="black"/>
<path d="M53.5953 95.9981H57.9019V99.6154H53.5953V106.446L53.5976 106.473C53.6959 107.522 54.1517 108.516 54.8138 109.336L54.8172 109.34L54.8206 109.344C55.5149 110.171 56.4738 110.698 57.5262 110.863L57.5346 110.865L57.5435 110.866C57.6557 110.88 57.775 110.895 57.9019 110.908V114.823C57.7647 114.822 57.6274 114.817 57.4903 114.805L57.483 114.805L57.4763 114.804L57.2189 114.785C55.9338 114.672 54.6808 114.275 53.5718 113.62L53.5662 113.617C52.1722 112.812 51.068 111.63 50.3111 110.225L50.3049 110.213L50.2976 110.201C49.7428 109.276 49.4198 108.236 49.2843 107.125C49.2534 106.853 49.2351 105.885 49.2283 104.527C49.2216 103.186 49.226 101.511 49.235 99.8734C49.244 98.2362 49.2574 96.6371 49.2686 95.4474C49.2742 94.8529 49.279 94.3606 49.2827 94.017C49.2835 93.934 49.2842 93.8594 49.2849 93.7944L53.5953 91.1404V95.9981Z" fill="black"/>
<path d="M8.16051 95.1368C9.38977 95.1647 10.6122 95.304 11.7728 95.5803L11.7829 95.5831L11.7936 95.5848C12.7872 95.7836 13.7169 96.1683 14.5838 96.7007L13.1309 100.222C12.4 99.7601 11.6009 99.421 10.7573 99.2033L10.7478 99.2005L10.7388 99.1988L10.4338 99.1343C9.72029 98.9921 8.96208 98.899 8.21826 98.8977C7.38391 98.842 6.53927 98.9795 5.76669 99.3452L5.61193 99.422C4.99918 99.7325 4.68585 100.363 4.64408 100.946L4.63903 101.051C4.63315 101.569 4.90155 102.076 5.38034 102.347C5.8533 102.631 6.39959 102.859 6.98967 102.961C7.61445 103.11 8.31958 103.227 9.06218 103.341L9.06555 103.342C9.81369 103.452 10.5605 103.619 11.2777 103.84L11.3024 103.846C12.0183 104.032 12.6789 104.323 13.2863 104.719L13.2908 104.722L13.2952 104.725C13.894 105.099 14.3705 105.624 14.6982 106.254L14.7083 106.251C15.5471 108.097 15.4112 110.214 14.3304 111.924C13.6531 112.856 12.7132 113.564 11.6298 114.014C10.2457 114.584 8.77443 114.831 7.26556 114.803H7.25491C5.81322 114.803 4.37227 114.609 2.9882 114.222L2.98372 114.22L2.97923 114.219L2.76671 114.161C1.78293 113.878 0.842172 113.433 0 112.862L1.46691 109.284C3.25199 110.41 5.31971 111.013 7.41135 111.07C8.30302 111.13 9.19496 110.969 10.0222 110.588L10.053 110.573L10.0822 110.555C10.6259 110.22 10.9586 109.633 10.9586 108.975C10.9585 108.475 10.693 107.954 10.2319 107.698C9.7006 107.4 9.14673 107.24 8.61751 107.146C7.97464 107.029 7.30247 106.917 6.55958 106.774L6.54725 106.772L6.53491 106.771C5.78884 106.66 5.06453 106.493 4.2981 106.294C3.58227 106.109 2.92153 105.818 2.31419 105.422C1.7207 105.025 1.24006 104.475 0.878125 103.836C0.0490128 101.976 0.184169 99.8114 1.27569 98.0919C1.92799 97.1297 2.84071 96.3996 3.91455 95.9543L3.92128 95.9515C5.24907 95.3825 6.7173 95.1099 8.16051 95.1368Z" fill="black"/>
<path fill-rule="evenodd" clip-rule="evenodd" d="M77.2649 95.8826L77.2728 95.8831H77.2806C82.3291 95.9911 86.3298 100.204 86.2217 105.259V105.272C86.2216 109.116 83.8936 112.576 80.3266 113.982L80.3232 113.983C76.7497 115.418 72.6931 114.551 70.0431 111.766C67.3898 108.977 66.6882 104.864 68.2835 101.376L68.2852 101.373C69.8533 97.8849 73.4239 95.6932 77.2649 95.8826ZM79.0548 100.316C77.0267 99.5117 74.7126 100.028 73.2034 101.601L73.1995 101.606C71.7189 103.183 71.3345 105.498 72.2334 107.489L72.235 107.492C73.1368 109.457 75.1337 110.679 77.3182 110.582L77.3176 110.581C80.1788 110.511 82.4608 108.135 82.4036 105.272C82.4036 103.087 81.085 101.122 79.0548 100.316Z" fill="black"/>
<path d="M23.1123 53V25" stroke="#141413" stroke-width="5"/>
<path d="M63.1123 53V25" stroke="#141413" stroke-width="5"/>
<path d="M23.1123 25C23.1123 19.6957 25.2194 14.6086 28.9702 10.8578C32.7209 7.10712 37.808 5 43.1123 5C48.4166 5 53.5037 7.10712 57.2544 10.8578C61.0052 14.6086 63.1123 19.6957 63.1123 25" stroke="#141413" stroke-width="5"/>
<path d="M37.1123 0H49.1123L47.1123 8H39.1123L37.1123 0Z" fill="#C18F3A"/>
<path d="M17.1123 53H69.1123" stroke="#141413" stroke-width="2"/>
</svg>
